<svg version="1.0" xmlns="http://www.w3.org/2000/svg" width="800.000000" height="800.000000" viewBox="161 161 478 478" preserveAspectRatio="xMidYMid meet">
  <metadata>
    <rdf:RDF xmlns:rdf="http://www.w3.org/1999/02/22-rdf-syntax-ns#" xmlns:rdfs="http://www.w3.org/2000/01/rdf-schema#" xmlns:dc="http://purl.org/dc/elements/1.1/">
      <rdf:Description dc:format="image/svg+xml" dc:Label="1" dc:ContentProducer="001191330110MACRLGPT8B00000" dc:ProduceID="446154817" dc:ReservedCode1="Q3mjbGJNsXY/awGOCaA0YAOvS0wwzDKM0NE7qlOeSdw=" dc:ContentPropagator="001191330110MACRLGPT8B00000" dc:PropagateID="446154817" dc:ReservedCode2="Q3mjbGJNsXY/awGOCaA0YAOvS0wwzDKM0NE7qlOeSdw="/>
    </rdf:RDF>
  </metadata>
  <g transform="translate(187.555383,618.832735) scale(0.053784,-0.053784)" fill="#000000" stroke="none">
    <path d="M2450 7634 c-14 -2 -59 -9 -100 -15 -152 -23 -362 -109 -496 -205 -34 -24 -93 -73 -132 -109 -127 -118 -149 -152 -482 -745 -48 -85 -213 -380 -367 -655 -154 -275 -376 -671 -494 -880 -117 -209 -228 -415 -247 -457 -18 -42 -45 -128 -59 -190 -24 -101 -27 -133 -28 -298 0 -194 6 -237 52 -385 34 -107 71 -182 247 -495 82 -146 171 -303 196 -350 26 -47 102 -184 170 -305 156 -279 446 -801 515 -925 87 -158 235 -421 277 -492 171 -296 440 -501 778 -596 l95 -27 1545 -3 c1368 -2 1554 -1 1625 13 180 35 347 105 480 201 207 148 299 258 460 554 63 115 353 639 432 780 39 69 81 145 95 170 14 25 77 137 140 250 63 113 164 293 223 400 60 107 154 274 209 370 178 312 202 364 247 536 21 80 23 111 24 299 0 236 -15 320 -81 482 -36 87 -42 99 -294 548 -187 334 -332 593 -400 715 -25 47 -156 281 -290 520 -133 239 -276 496 -318 570 -94 170 -125 217 -205 310 -162 188 -395 328 -657 393 -85 21 -93 21 -1610 23 -839 1 -1536 0 -1550 -2z m2935 -384 c227 -16 382 -80 542 -224 92 -83 98 -92 566 -931 132 -236 276 -495 320 -575 44 -80 120 -217 170 -305 292 -520 427 -767 446 -818 49 -133 63 -323 36 -480 -20 -115 -55 -209 -124 -330 -93 -164 -273 -484 -333 -592 -31 -55 -195 -350 -365 -655 -170 -305 -352 -631 -403 -725 -210 -383 -251 -442 -373 -540 -91 -73 -211 -135 -322 -167 l-80 -23 -1505 0 -1505 0 -84 23 c-107 29 -215 79 -296 136 -81 59 -187 173 -235 256 -96 166 -854 1525 -1135 2035 -75 138 -141 255 -145 260 -30 39 -93 186 -112 261 -31 128 -31 324 1 447 35 134 22 110 352 692 84 149 225 401 314 560 89 160 205 367 257 460 53 94 106 188 118 210 19 34 91 162 321 568 22 38 39 71 39 73 0 3 18 29 39 58 104 141 298 266 473 306 29 7 109 16 178 20 181 10 2703 11 2845 0z"/>
    <path d="M3690 5470 c-558 -106 -991 -524 -1101 -1063 -53 -261 -29 -544 68 -785 70 -175 228 -396 371 -518 318 -272 696 -385 1102 -329 443 60 840 349 1042 758 54 109 104 262 124 382 26 154 16 382 -24 537 -62 240 -181 448 -362 629 -58 58 -139 129 -180 158 -166 117 -390 207 -581 235 -140 21 -338 19 -459 -4z m411 -375 c649 -113 1013 -807 729 -1390 -105 -214 -270 -374 -494 -475 -297 -135 -669 -106 -941 72 -94 62 -226 189 -282 273 -161 239 -208 512 -138 792 42 166 120 307 240 432 231 240 565 353 886 296z"/>
  </g>
</svg>