<svg version="1.0" xmlns="http://www.w3.org/2000/svg" width="800.000000" height="800.000000" viewBox="161 161 478 478" preserveAspectRatio="xMidYMid meet">
  <metadata>
    <rdf:RDF xmlns:rdf="http://www.w3.org/1999/02/22-rdf-syntax-ns#" xmlns:rdfs="http://www.w3.org/2000/01/rdf-schema#" xmlns:dc="http://purl.org/dc/elements/1.1/">
      <rdf:Description dc:format="image/svg+xml" dc:Label="1" dc:ContentProducer="001191330110MACRLGPT8B00000" dc:ProduceID="446155319" dc:ReservedCode1="lkoBvpulHlrtdujAhrEh0JV8g7QP9Cd5//CD0UesWDQ=" dc:ContentPropagator="001191330110MACRLGPT8B00000" dc:PropagateID="446155319" dc:ReservedCode2="lkoBvpulHlrtdujAhrEh0JV8g7QP9Cd5//CD0UesWDQ="/>
    </rdf:RDF>
  </metadata>
  <g transform="translate(167.906508,641.475268) scale(0.058727,-0.058727)" fill="#000000" stroke="none">
    <path d="M4300 7681 c-71 -23 -131 -74 -166 -141 -18 -33 -19 -77 -24 -725 -5 -665 -6 -691 -25 -729 -11 -22 -37 -54 -58 -70 l-39 -31 -941 -5 -942 -5 -58 -23 c-106 -43 -197 -131 -239 -231 l-23 -56 -3 -657 -3 -658 2733 0 c2967 1 2764 -3 2849 56 61 42 93 111 93 204 1 58 -4 84 -21 116 -33 62 -2880 2902 -2940 2933 -50 25 -149 37 -193 22z m1487 -1665 c765 -767 1388 -1397 1385 -1400 -7 -8 -5071 -7 -5099 0 l-23 6 0 501 0 500 39 37 c21 20 53 40 71 44 18 3 436 6 929 6 968 0 941 -1 1051 55 100 51 191 167 219 280 7 26 11 288 11 703 1 510 4 662 13 662 7 1 638 -627 1404 -1394z"/>
    <path d="M603 3859 c-129 -49 -190 -205 -130 -332 13 -28 60 -86 112 -140 50 -50 342 -348 650 -662 631 -643 781 -797 1360 -1390 734 -752 727 -745 780 -773 40 -20 65 -26 120 -26 121 -1 210 62 254 178 21 56 21 68 21 734 0 653 1 678 20 709 10 17 29 38 42 45 19 10 241 14 1146 16 l1122 2 0 830 0 830 -2722 -1 c-2701 0 -2723 0 -2775 -20z m5227 -809 l0 -560 -982 0 c-789 0 -993 -3 -1033 -14 -126 -33 -222 -111 -277 -224 l-33 -67 -5 -690 -5 -690 -70 70 c-39 39 -172 174 -296 300 -683 700 -1582 1615 -2154 2193 l-240 242 2548 0 2547 0 0 -560z"/>
  </g>
</svg>