<svg version="1.0" xmlns="http://www.w3.org/2000/svg" width="800.000000" height="800.000000" viewBox="161 161 478 478" preserveAspectRatio="xMidYMid meet">
  <metadata>
    <rdf:RDF xmlns:rdf="http://www.w3.org/1999/02/22-rdf-syntax-ns#" xmlns:rdfs="http://www.w3.org/2000/01/rdf-schema#" xmlns:dc="http://purl.org/dc/elements/1.1/">
      <rdf:Description dc:format="image/svg+xml" dc:Label="1" dc:ContentProducer="001191330110MACRLGPT8B00000" dc:ProduceID="446156373" dc:ReservedCode1="yWZVn3/eDbwDcs8KU4vvpSQIaM04dyxkUS2jYM49CnY=" dc:ContentPropagator="001191330110MACRLGPT8B00000" dc:PropagateID="446156373" dc:ReservedCode2="yWZVn3/eDbwDcs8KU4vvpSQIaM04dyxkUS2jYM49CnY="/>
    </rdf:RDF>
  </metadata>
  <g transform="translate(181.574912,624.587167) scale(0.054910,-0.054910)" fill="#000000" stroke="none">
    <path d="M3771 7910 c-748 -43 -1471 -305 -2066 -749 -790 -589 -1323 -1457 -1485 -2416 -43 -256 -54 -387 -53 -640 1 -440 58 -798 190 -1195 244 -737 668 -1342 1278 -1829 495 -395 1072 -655 1695 -765 241 -42 357 -51 660 -50 307 0 465 15 731 69 710 144 1362 488 1884 994 221 215 361 382 533 641 662 991 828 2200 458 3325 -449 1363 -1621 2355 -3046 2579 -219 34 -541 49 -779 36z m459 -330 c438 -32 855 -142 1245 -330 563 -270 1057 -696 1392 -1200 300 -451 480 -921 564 -1465 27 -180 37 -600 19 -797 -54 -588 -259 -1158 -603 -1673 -222 -331 -605 -712 -950 -944 -438 -294 -934 -480 -1482 -558 -160 -22 -691 -26 -845 -5 -868 116 -1617 514 -2195 1166 -473 535 -771 1199 -862 1920 -21 163 -23 632 -4 781 59 471 174 842 386 1254 86 165 244 407 371 566 118 148 370 398 529 524 696 555 1562 825 2435 761z"/>
    <path d="M5712 6469 c-34 -10 -281 -123 -1477 -674 -390 -180 -809 -372 -930 -427 -298 -136 -354 -165 -393 -202 -35 -32 -72 -99 -146 -263 -45 -102 -74 -162 -371 -798 -97 -209 -285 -614 -417 -900 -132 -286 -279 -603 -327 -705 l-86 -185 0 -105 c0 -86 4 -115 22 -160 42 -104 132 -191 245 -238 54 -23 77 -26 163 -26 64 1 114 7 140 16 40 16 739 342 1550 723 231 109 467 220 525 247 371 174 601 286 637 310 69 46 99 92 218 333 413 838 527 1070 685 1395 98 201 250 513 339 693 88 180 168 353 177 384 12 42 15 82 12 155 -4 89 -9 105 -43 175 -51 103 -121 173 -221 220 -68 32 -86 36 -172 39 -54 2 -112 -1 -130 -7z m178 -334 c16 -9 37 -30 46 -48 37 -70 31 -88 -166 -488 -101 -206 -247 -504 -325 -664 -626 -1277 -769 -1563 -788 -1581 -12 -12 -137 -75 -277 -142 -467 -220 -1451 -683 -1750 -822 -162 -75 -360 -168 -439 -205 -94 -45 -161 -70 -192 -73 -44 -4 -51 -1 -80 27 -28 28 -31 37 -26 74 3 25 65 170 149 352 80 171 214 459 298 640 84 182 181 391 215 465 35 74 120 259 190 410 70 151 142 307 160 345 18 39 63 134 99 213 36 78 84 178 105 221 l40 78 203 93 c343 157 1472 677 1673 770 105 48 244 113 310 143 66 30 194 89 285 131 174 80 216 89 270 61z"/>
    <path d="M3766 4689 c-69 -16 -179 -76 -239 -130 -120 -107 -187 -245 -195 -399 -8 -167 44 -303 162 -428 81 -85 186 -143 306 -168 296 -62 602 147 665 454 19 93 19 136 -1 225 -50 220 -207 387 -415 442 -60 16 -222 18 -283 4z m251 -344 c150 -75 177 -272 54 -395 -74 -73 -172 -90 -267 -46 -123 57 -178 204 -123 326 24 54 43 75 90 105 44 29 60 32 135 34 46 1 72 -5 111 -24z"/>
  </g>
</svg>