<svg version="1.0" xmlns="http://www.w3.org/2000/svg" width="800.000000" height="800.000000" viewBox="161 161 478 478" preserveAspectRatio="xMidYMid meet">
  <metadata>
    <rdf:RDF xmlns:rdf="http://www.w3.org/1999/02/22-rdf-syntax-ns#" xmlns:rdfs="http://www.w3.org/2000/01/rdf-schema#" xmlns:dc="http://purl.org/dc/elements/1.1/">
      <rdf:Description dc:format="image/svg+xml" dc:Label="1" dc:ContentProducer="001191330110MACRLGPT8B00000" dc:ProduceID="446156375" dc:ReservedCode1="qaMCXLJHK/vLGBkUqF1N7CEoGZbS1Z8wfnTP2RN1yeU=" dc:ContentPropagator="001191330110MACRLGPT8B00000" dc:PropagateID="446156375" dc:ReservedCode2="qaMCXLJHK/vLGBkUqF1N7CEoGZbS1Z8wfnTP2RN1yeU="/>
    </rdf:RDF>
  </metadata>
  <g transform="translate(187.259720,616.295110) scale(0.053681,-0.053681)" fill="#000000" stroke="none">
    <path d="M7225 7723 c-33 -1 -224 -12 -425 -22 -201 -11 -408 -22 -460 -24 -70 -3 -105 -9 -135 -25 -76 -39 -115 -102 -115 -187 0 -48 8 -72 66 -186 46 -93 64 -138 60 -155 -6 -22 -93 -78 -326 -209 -47 -27 -101 -58 -120 -70 -19 -12 -107 -63 -195 -113 -88 -49 -259 -147 -380 -217 -121 -71 -293 -170 -382 -221 -178 -102 -464 -267 -556 -320 -31 -18 -67 -40 -79 -49 -13 -8 -35 -15 -50 -15 -22 0 -32 8 -49 43 -25 48 -265 488 -374 682 -40 72 -86 155 -103 185 -121 222 -176 317 -189 333 -25 26 -118 67 -155 67 -62 0 -110 -21 -291 -130 -401 -238 -557 -330 -562 -330 -3 0 -38 -20 -78 -44 -74 -45 -394 -232 -504 -295 -163 -93 -431 -248 -550 -318 -240 -142 -536 -315 -692 -405 -202 -118 -198 -114 -226 -163 -26 -44 -33 -112 -16 -158 15 -38 80 -96 123 -109 48 -14 111 0 173 38 145 89 213 130 405 242 118 69 244 141 280 162 36 20 117 67 180 105 63 37 140 82 170 100 30 17 98 56 150 87 109 63 239 139 425 246 188 109 426 247 535 312 261 155 379 220 403 220 17 0 33 -10 46 -29 12 -16 21 -32 21 -35 0 -3 78 -146 174 -318 213 -385 398 -724 414 -760 20 -47 91 -116 137 -134 62 -23 157 -16 221 17 52 27 552 315 569 329 6 4 35 21 65 37 30 17 109 62 175 100 125 73 182 106 560 323 255 147 262 151 593 340 219 125 233 131 255 117 12 -8 48 -65 81 -128 132 -257 164 -299 233 -318 56 -16 82 -13 140 14 42 19 60 35 89 82 20 32 67 104 103 160 36 56 100 157 141 223 41 66 98 155 127 198 45 67 121 188 255 404 63 103 61 191 -7 267 -54 59 -102 67 -350 54z m-137 -396 c2 -9 -25 -62 -60 -117 -195 -308 -218 -340 -237 -340 -15 0 -32 23 -69 93 -26 50 -77 147 -112 214 -53 100 -63 124 -52 135 9 9 78 16 225 24 273 15 301 14 305 -9z"/>
    <path d="M7588 5799 c-36 -8 -131 -56 -218 -109 -25 -15 -90 -52 -145 -82 -55 -31 -172 -96 -260 -145 -88 -50 -191 -107 -230 -128 -84 -46 -346 -191 -605 -337 -63 -36 -162 -91 -220 -123 -58 -32 -130 -73 -160 -90 -30 -18 -86 -49 -125 -70 -38 -21 -106 -58 -150 -83 -44 -25 -127 -71 -185 -102 -123 -67 -541 -300 -755 -422 -174 -99 -507 -285 -548 -306 -51 -26 -51 -26 -242 323 -40 72 -126 227 -192 345 -66 118 -149 268 -184 333 -103 191 -155 236 -270 237 -66 0 -68 -1 -384 -184 -121 -71 -249 -144 -285 -164 -36 -19 -99 -56 -140 -81 -41 -24 -104 -61 -140 -81 -36 -20 -238 -136 -450 -257 -212 -121 -648 -370 -970 -554 -322 -183 -597 -346 -612 -361 -15 -16 -36 -54 -48 -85 -20 -55 -20 -62 -18 -1192 l3 -1136 26 -82 c72 -226 249 -405 479 -485 143 -50 22 -48 3380 -48 2022 0 3169 4 3230 10 213 23 356 87 491 220 95 93 147 180 191 320 l23 75 0 2340 c0 2262 -1 2341 -19 2375 -32 61 -87 109 -140 125 -55 17 -74 17 -128 4z m-80 -481 c9 -9 12 -497 12 -2133 0 -1884 -2 -2127 -16 -2180 -30 -117 -105 -212 -207 -264 -58 -30 -76 -33 -203 -42 -85 -6 -1338 -8 -3239 -7 l-3100 3 -63 23 c-138 50 -226 135 -268 262 -18 52 -19 114 -22 1065 -2 556 0 1025 3 1042 6 34 32 53 195 140 30 16 125 70 210 120 162 94 856 490 925 528 22 12 83 47 135 77 146 86 372 215 505 288 66 37 174 98 240 137 415 242 430 249 452 221 6 -7 29 -47 51 -88 22 -41 59 -109 82 -150 24 -41 65 -115 92 -165 28 -49 67 -119 88 -155 20 -36 59 -103 85 -150 26 -47 64 -114 85 -150 20 -36 63 -112 95 -170 31 -57 69 -115 84 -127 70 -61 171 -80 261 -48 24 9 98 46 164 84 67 38 216 122 331 186 410 229 472 264 658 369 103 58 189 106 192 106 2 0 36 19 77 43 40 24 98 57 128 74 30 16 123 67 205 113 83 45 200 110 260 145 61 34 182 102 270 150 88 48 198 109 245 136 135 75 430 239 490 272 30 16 60 33 65 37 6 4 48 28 95 53 47 25 132 72 190 105 111 63 129 69 148 50z"/>
  </g>
</svg>